<?xml version="1.0" encoding="UTF-8"?>
<svg id="outputsvg" xmlns="http://www.w3.org/2000/svg" version="1.1" viewBox="0 0 1024 1024">
  <!-- Generator: Adobe Illustrator 30.3.0, SVG Export Plug-In . SVG Version: 2.1.3 Build 182)  -->
  <defs>
    <style>
      .st0, .st1 {
        fill: #fff;
      }

      .st1 {
        font-family: Bauhaus93, 'Bauhaus 93';
        font-size: 64.1px;
      }
    </style>
  </defs>
  <path class="st0" d="M983.6,836.4h0c-3.48-5.13-183.13-304.93-242.94-405.37-5.52-9.27-10.01-16.85-13.26-22.33-.95-1.61-1.9-3.23-2.86-4.86-.96-1.63-1.93-3.26-2.91-4.91-3.91-6.6-7.99-13.45-12.43-20.87-1.67-2.78-3.38-5.65-5.16-8.61-1.19-1.98-2.4-4-3.64-6.07-.62-1.04-1.25-2.08-1.89-3.14-3.19-5.3-6.58-10.93-10.22-16.97-6.55-10.87-13.92-23.06-22.39-37.07-2.29-3.78-5.01-8.3-8.05-13.34-1.01-1.68-2.06-3.42-3.13-5.2-12.05-20.03-27.73-46.18-39.82-66.46-16.4-27.5-34-57-39-65.5-5.1-8.5-21.3-35.7-35.9-60.4-14.6-24.7-26.8-45.1-27-45.3-.2-.3-8.7,13.4-18.8,30.4-10.2,16.9-41.3,69.1-69.3,115.8-27.9,46.8-69.1,115.6-91.5,153-40.1,67-51.3,85.7-98.5,165-35.3,59.3-56.6,94.7-81.5,136-12.3,20.4-37.3,61.8-55.5,92-18.3,30.3-39.3,65-46.8,77.3l-13.5,22.2h474.4c17.2,0,34.2,0,50.94-.01h.02c237.18-.03,423.44-.31,423.44-.59,0-.3-1.3-2.4-2.8-4.7ZM746.03,640.15h0c-4.9,24.1-15.8,45.6-35.6,70.3-38.7,48-107.9,85.3-179.9,97-12.63,2.01-30.84,3.15-46.37,3.15-9.18,0-17.42-.4-23.03-1.25-30.7-4.7-53.7-15.4-72-33.5-10.7-10.6-17.8-20.7-25-35.5-8.3-17-18.5-48.6-16.4-50.4.5-.4,6.8-2.5,13.9-4.5,7.2-2.1,24.3-7.2,38-11.3,13.8-4.1,25.4-7.6,25.9-7.6h.03c.51,0,1.28,2.16,1.77,4.8,4.8,29.3,17.4,49.2,37.2,58.9,12.42,6.1,28.17,8.93,45.38,8.93,45.41,0,101-19.7,132.62-51.03,17.5-17.3,25.4-35.5,24.4-55.9-.4-8-1-10.3-4.1-16.9-7-14.6-20.1-24.2-38.2-28-5.26-1.11-11.87-1.68-20.6-1.68-12.49,0-29.35,1.17-52.9,3.58-45.9,4.7-58.9,5.6-82,5.6-29.3,0-48.9-2.8-71-10-40.8-13.3-63.1-36.7-71.1-74.5-1.9-8.7-1.6-32.2.5-42,7.5-35.2,29.3-70.2,59.6-95.8,46.73-39.54,114.12-63.11,178.49-63.11,5.46,0,10.9.17,16.31.51,37.9,2.3,67.4,15.3,87.2,38.2,7.5,8.6,17.3,24.9,23.4,38.7,3.7,8.3,10.6,28.2,10.6,30.4,0,1.3-9.9,4.7-44,15.1-11.8,3.7-24.8,7.7-28.7,9l-7.3,2.4-1-4.2c-5.6-21.8-10-30.7-20.7-41.4-11.5-11.5-22.1-16.3-42.8-19.3-4.8-.68-9.89-1.01-15.17-1.01-30.53,0-67.54,10.99-94.23,28.81-43,28.8-55.8,73.8-29.1,101.6,11.7,12.2,24.1,16.6,48.5,17.3,2.29.07,4.47.11,6.71.11,10.94,0,23.16-.94,55.79-4.01,43.2-4,48.7-4.3,77.5-4.3,27.3.1,32.4.3,43,2.2,54.6,9.8,85.9,35.6,95.1,78.3,2.1,10,1.8,30.2-.7,42.3Z"/>
  <text class="st1" transform="translate(106.11 955.56)"><tspan x="0" y="0">TURNING IDEAS INTO REALITY</tspan></text>
</svg>