<?xml version="1.0" encoding="UTF-8"?>
<svg id="outputsvg" xmlns="http://www.w3.org/2000/svg" version="1.1" viewBox="0 0 1024 1024">
  <!-- Generator: Adobe Illustrator 30.3.0, SVG Export Plug-In . SVG Version: 2.1.3 Build 182)  -->
  <defs>
    <style>
      .st0 {
        fill: #fff;
      }

      .st1 {
        isolation: isolate;
      }
    </style>
  </defs>
  <path class="st0" d="M983.6,836.4h0c-3.48-5.13-183.13-304.93-242.94-405.37-5.52-9.27-10.01-16.85-13.26-22.33-.95-1.61-1.9-3.23-2.86-4.86-.96-1.63-1.93-3.26-2.91-4.91-3.91-6.6-7.99-13.45-12.43-20.87-1.67-2.78-3.38-5.65-5.16-8.61-1.19-1.98-2.4-4-3.64-6.07-.62-1.04-1.25-2.08-1.89-3.14-3.19-5.3-6.58-10.93-10.22-16.97-6.55-10.87-13.92-23.06-22.39-37.07-2.29-3.78-5.01-8.3-8.05-13.34-1.01-1.68-2.06-3.42-3.13-5.2-12.05-20.03-27.73-46.18-39.82-66.46-16.4-27.5-34-57-39-65.5-5.1-8.5-21.3-35.7-35.9-60.4-14.6-24.7-26.8-45.1-27-45.3-.2-.3-8.7,13.4-18.8,30.4-10.2,16.9-41.3,69.1-69.3,115.8-27.9,46.8-69.1,115.6-91.5,153-40.1,67-51.3,85.7-98.5,165-35.3,59.3-56.6,94.7-81.5,136-12.3,20.4-37.3,61.8-55.5,92-18.3,30.3-39.3,65-46.8,77.3l-13.5,22.2h474.4c17.2,0,34.2,0,50.94-.01h.02c237.18-.03,423.44-.31,423.44-.59,0-.3-1.3-2.4-2.8-4.7h0ZM746.03,640.15h0c-4.9,24.1-15.8,45.6-35.6,70.3-38.7,48-107.9,85.3-179.9,97-12.63,2.01-30.84,3.15-46.37,3.15-9.18,0-17.42-.4-23.03-1.25-30.7-4.7-53.7-15.4-72-33.5-10.7-10.6-17.8-20.7-25-35.5-8.3-17-18.5-48.6-16.4-50.4.5-.4,6.8-2.5,13.9-4.5,7.2-2.1,24.3-7.2,38-11.3,13.8-4.1,25.4-7.6,25.9-7.6h.03c.51,0,1.28,2.16,1.77,4.8,4.8,29.3,17.4,49.2,37.2,58.9,12.42,6.1,28.17,8.93,45.38,8.93,45.41,0,101-19.7,132.62-51.03,17.5-17.3,25.4-35.5,24.4-55.9-.4-8-1-10.3-4.1-16.9-7-14.6-20.1-24.2-38.2-28-5.26-1.11-11.87-1.68-20.6-1.68-12.49,0-29.35,1.17-52.9,3.58-45.9,4.7-58.9,5.6-82,5.6-29.3,0-48.9-2.8-71-10-40.8-13.3-63.1-36.7-71.1-74.5-1.9-8.7-1.6-32.2.5-42,7.5-35.2,29.3-70.2,59.6-95.8,46.73-39.54,114.12-63.11,178.49-63.11,5.46,0,10.9.17,16.31.51,37.9,2.3,67.4,15.3,87.2,38.2,7.5,8.6,17.3,24.9,23.4,38.7,3.7,8.3,10.6,28.2,10.6,30.4,0,1.3-9.9,4.7-44,15.1-11.8,3.7-24.8,7.7-28.7,9l-7.3,2.4-1-4.2c-5.6-21.8-10-30.7-20.7-41.4-11.5-11.5-22.1-16.3-42.8-19.3-4.8-.68-9.89-1.01-15.17-1.01-30.53,0-67.54,10.99-94.23,28.81-43,28.8-55.8,73.8-29.1,101.6,11.7,12.2,24.1,16.6,48.5,17.3,2.29.07,4.47.11,6.71.11,10.94,0,23.16-.94,55.79-4.01,43.2-4,48.7-4.3,77.5-4.3,27.3.1,32.4.3,43,2.2,54.6,9.8,85.9,35.6,95.1,78.3,2.1,10,1.8,30.2-.7,42.3Z"/>
  <g class="st1">
    <g class="st1">
      <path class="st0" d="M128.99,925.11v30.45h-12.71v-30.45h-9.73v-12.27h32.14v12.27h-9.7Z"/>
      <path class="st0" d="M173.4,912.84v27.7c0,4.88-1.46,8.79-4.37,11.71-2.91,2.92-6.79,4.38-11.63,4.38s-8.51-1.42-11.06-4.26c-2.56-2.84-3.83-6.92-3.83-12.24v-27.29h12.71v27.26c0,2.61.93,3.91,2.79,3.91s2.69-1.3,2.69-3.91v-27.26h12.71Z"/>
      <path class="st0" d="M193.84,924.32v31.24h-12.71v-42.72h16.31c4.97,0,8.82,1.23,11.55,3.69,3.05,2.75,4.57,6.25,4.57,10.48s-1.89,7.96-5.67,10.92l7.32,17.62h-13.33l-6.17-13.77v-10.99h1c2.67,0,4.01-1.15,4.01-3.44,0-2.02-1.54-3.04-4.63-3.04h-2.25Z"/>
      <path class="st0" d="M218.6,955.56v-27.73c0-4.86,1.46-8.75,4.37-11.67,2.91-2.92,6.79-4.38,11.63-4.38s8.51,1.42,11.06,4.26,3.83,6.92,3.83,12.24v27.29h-12.71v-27.29c0-2.61-.93-3.91-2.79-3.91s-2.69,1.3-2.69,3.91v27.29h-12.71Z"/>
      <path class="st0" d="M269.93,912.84v42.72h-12.71v-42.72h12.71Z"/>
      <path class="st0" d="M277.6,955.56v-27.73c0-4.86,1.46-8.75,4.37-11.67,2.91-2.92,6.79-4.38,11.63-4.38s8.51,1.42,11.06,4.26,3.83,6.92,3.83,12.24v27.29h-12.71v-27.29c0-2.61-.93-3.91-2.79-3.91s-2.69,1.3-2.69,3.91v27.29h-12.71Z"/>
      <path class="st0" d="M334.31,931.62h12.11c2.61,3.23,3.91,6.65,3.91,10.23,0,4.17-1.53,7.68-4.59,10.52-3.06,2.84-6.82,4.26-11.28,4.26-5.8,0-10.73-2.2-14.77-6.6-4.05-4.4-6.07-9.76-6.07-16.09s2.06-11.62,6.18-15.84c4.12-4.21,9.27-6.32,15.45-6.32,2.11,0,4.44.43,7.01,1.28v12.71c-2-.94-3.83-1.41-5.48-1.41-2.98,0-5.42.93-7.31,2.79-1.89,1.86-2.83,4.27-2.83,7.23s.88,5.43,2.63,7.2c1.75,1.77,4.12,2.66,7.1,2.66,1.9,0,2.85-.55,2.85-1.66,0-.83-.63-1.25-1.88-1.25h-3.04v-9.7Z"/>
      <path class="st0" d="M384.23,912.84v42.72h-12.71v-42.72h12.71Z"/>
      <path class="st0" d="M405.48,925.11v30.45h-12.71v-42.72h16.56c7.26,0,12.95,1.65,17.06,4.95,4.88,3.94,7.32,9.29,7.32,16.06s-2.09,11.75-6.26,15.84-9.55,6.13-16.12,6.13c-.77,0-2.03-.04-3.79-.12v-12.55h2.03c7.41,0,11.11-3.1,11.11-9.3,0-5.82-3.64-8.73-10.92-8.73h-4.29Z"/>
      <path class="st0" d="M462.48,929.46v9.52h-8.29c-1.13,0-1.92.17-2.39.5-.47.33-.7.9-.7,1.69,0,.9.24,1.49.72,1.77.48.28,1.46.42,2.94.42h8.54v12.21h-9.98c-4.69,0-8.28-1.12-10.77-3.36-2.48-2.24-3.72-5.48-3.72-9.72v-16.75c0-4.09,1.17-7.26,3.52-9.51,2.35-2.25,5.65-3.38,9.91-3.38h11.05v12.27h-8.11c-2.19,0-3.29.71-3.29,2.13,0,.83.26,1.41.78,1.74s1.45.48,2.79.48h7.01Z"/>
      <path class="st0" d="M486.08,934.12v11.27h-3.66v10.17h-12.71v-27.17c0-5.26,1.43-9.34,4.3-12.25,2.87-2.91,6.9-4.37,12.1-4.37s8.71,1.32,11.11,3.96c2.4,2.64,3.6,6.71,3.6,12.22v27.61h-12.71v-26.76c0-1.67-.2-2.83-.59-3.47-.4-.65-1.11-.97-2.13-.97-1.98,0-2.97,1.48-2.97,4.44v5.32h3.66Z"/>
      <path class="st0" d="M528.58,912.65v12.18c-.92-.31-1.63-.47-2.13-.47-.96,0-1.78.36-2.47,1.06s-1.03,1.56-1.03,2.57c0,.86.38,1.94,1.13,3.25l.97,1.69c1.75,3.05,2.63,5.99,2.63,8.83,0,4.15-1.48,7.67-4.43,10.55-2.95,2.88-6.56,4.32-10.81,4.32-2.04,0-4.07-.47-6.07-1.41v-12.36c1.21.77,2.28,1.16,3.22,1.16,1.11,0,2.03-.32,2.77-.96.74-.64,1.11-1.43,1.11-2.39,0-.63-.6-1.99-1.78-4.1-1.9-3.34-2.85-6.68-2.85-10.02,0-4.03,1.43-7.5,4.3-10.41,2.87-2.91,6.3-4.37,10.28-4.37,1.75,0,3.47.29,5.17.88Z"/>
      <path class="st0" d="M563.76,912.84v42.72h-12.71v-42.72h12.71Z"/>
      <path class="st0" d="M571.43,955.56v-27.73c0-4.86,1.46-8.75,4.37-11.67,2.91-2.92,6.79-4.38,11.63-4.38s8.51,1.42,11.06,4.26c2.56,2.84,3.83,6.92,3.83,12.24v27.29h-12.71v-27.29c0-2.61-.93-3.91-2.79-3.91s-2.69,1.3-2.69,3.91v27.29h-12.71Z"/>
      <path class="st0" d="M628.64,925.11v30.45h-12.71v-30.45h-9.73v-12.27h32.14v12.27h-9.7Z"/>
      <path class="st0" d="M663.29,911.77c6.05,0,11.24,2.2,15.57,6.6,4.33,4.4,6.49,9.67,6.49,15.81s-2.18,11.54-6.54,15.9-9.66,6.54-15.9,6.54-11.49-2.19-15.87-6.57-6.57-9.67-6.57-15.87,2.21-11.56,6.62-15.9c4.41-4.34,9.81-6.51,16.2-6.51ZM662.92,924.35c-2.61,0-4.83.96-6.67,2.88-1.84,1.92-2.75,4.24-2.75,6.95s.92,5.03,2.77,6.95,4.06,2.88,6.65,2.88,4.86-.96,6.68-2.86c1.83-1.91,2.74-4.23,2.74-6.96s-.91-5.05-2.74-6.96c-1.83-1.91-4.05-2.86-6.68-2.86Z"/>
      <path class="st0" d="M720.07,924.32v31.24h-12.71v-42.72h16.31c4.97,0,8.82,1.23,11.55,3.69,3.05,2.75,4.57,6.25,4.57,10.48s-1.89,7.96-5.67,10.92l7.32,17.62h-13.33l-6.17-13.77v-10.99h1c2.67,0,4.01-1.15,4.01-3.44,0-2.02-1.54-3.04-4.63-3.04h-2.25Z"/>
      <path class="st0" d="M768.49,929.46v9.52h-8.29c-1.13,0-1.92.17-2.39.5-.47.33-.7.9-.7,1.69,0,.9.24,1.49.72,1.77.48.28,1.46.42,2.94.42h8.54v12.21h-9.98c-4.69,0-8.28-1.12-10.77-3.36s-3.72-5.48-3.72-9.72v-16.75c0-4.09,1.17-7.26,3.52-9.51,2.35-2.25,5.65-3.38,9.91-3.38h11.05v12.27h-8.11c-2.19,0-3.29.71-3.29,2.13,0,.83.26,1.41.78,1.74s1.45.48,2.79.48h7.01Z"/>
      <path class="st0" d="M792.09,934.12v11.27h-3.66v10.17h-12.71v-27.17c0-5.26,1.43-9.34,4.3-12.25s6.9-4.37,12.1-4.37,8.71,1.32,11.11,3.96c2.4,2.64,3.6,6.71,3.6,12.22v27.61h-12.71v-26.76c0-1.67-.2-2.83-.59-3.47-.4-.65-1.11-.97-2.13-.97-1.98,0-2.97,1.48-2.97,4.44v5.32h3.66Z"/>
      <path class="st0" d="M813.65,912.84h12.71v25.38c0,1.98.32,3.3.95,3.96s1.89.99,3.77.99h.66v12.39h-3.38c-4.63,0-8.24-1.35-10.83-4.05-2.59-2.7-3.88-6.45-3.88-11.25v-27.42Z"/>
      <path class="st0" d="M848.74,912.84v42.72h-12.71v-42.72h12.71Z"/>
      <path class="st0" d="M875.87,925.11v30.45h-12.71v-30.45h-9.73v-12.27h32.14v12.27h-9.7Z"/>
      <path class="st0" d="M920.38,912.84l-12.08,19v23.72h-12.71v-23.72l-12.17-19h12.89l5.51,8.79,5.92-8.79h12.64Z"/>
    </g>
  </g>
</svg>